<svg id="Layer_1" data-name="Layer 1" xmlns="http://www.w3.org/2000/svg" width="64" height="64" viewBox="0 0 64 64"><defs><style>.cls-1{fill:#666;}</style></defs><title>user_chat_2</title><path id="user_chat_2" class="cls-1" d="M35,32a1,1,0,0,1-.42-0.09A1,1,0,0,1,34,31V26H30a4,4,0,0,1-4-4V8a4,4,0,0,1,4-4H56a4,4,0,0,1,4,4V22a4,4,0,0,1-4,4H42.37l-6.72,5.76A1,1,0,0,1,35,32ZM30,6a2,2,0,0,0-2,2V22a2,2,0,0,0,2,2h5a1,1,0,0,1,1,1v3.83l5.35-4.58A1,1,0,0,1,42,24H56a2,2,0,0,0,2-2V8a2,2,0,0,0-2-2H30ZM27,38a11,11,0,0,1-4.4-21.08,1,1,0,1,1,.8,1.83,9,9,0,1,0,9,15.46,1,1,0,0,1,1.2,1.6A10.91,10.91,0,0,1,27,38ZM47,58a1,1,0,0,1-1-1A19,19,0,0,0,8,57a1,1,0,0,1-2,0,21,21,0,0,1,42,0A1,1,0,0,1,47,58Z"/></svg>