<svg xmlns="http://www.w3.org/2000/svg" xmlns:xlink="http://www.w3.org/1999/xlink" xmlns:sketch="http://www.bohemiancoding.com/sketch/ns" viewBox="0 0 228 265" version="1.1" x="0px" y="0px"><title>Imported Layers</title><desc>Created with Sketch.</desc><g stroke="none" stroke-width="1" fill="none" fill-rule="evenodd" sketch:type="MSPage"><path d="M215.874951,143.414868 L186.215624,112.281134 L228,53.0669686 L207.50303,0 L130.813279,77.6754678 L114,53.6085156 L97.1867215,77.6754678 L20.4969697,0 L0,53.0669686 L41.8098371,112.315922 L12.1829146,143.414868 L79.9799604,195.278142 L107.212426,170.710229 L114,212 L120.794518,170.665004 L148.077905,195.278142 L215.874951,143.414868 L215.874951,143.414868 Z M196,136 L136,132.05635 L178.441827,118 L196,136 L196,136 Z M106,159.03566 L92,171 L103.565321,145 L106,159.03566 L106,159.03566 Z M125.18325,146 L136,171 L123,159.277742 L125.18325,146 L125.18325,146 Z M177.299499,108.51954 L137,122 L162.090316,96.3142121 L207,67 L177.299499,108.51954 L177.299499,108.51954 Z M217,48.8351797 L174,77 L206.13864,21 L217,48.8351797 L217,48.8351797 Z M204.156,17 L204.279,17.316 L204,17.158 L204.156,17 L204.156,17 Z M188,32 L155.764984,89.065967 L129,117 L133.88371,87.1243015 L188,32 L188,32 Z M113.999438,70 L125,86.2334781 L117.88973,129.254751 L117.859363,129.265208 L117.431982,132.018811 L116.167834,139.669645 L116.252185,139.639437 L114.027555,154 L111.806298,139.66035 L111.831041,139.669645 L111.468892,137.478381 L110.196871,129.265208 L110.105772,129.233838 L103,86.2334781 L113.999438,70 L113.999438,70 Z M93.1287832,87.1851563 L98,117 L70.1621828,87.9653773 L38,31 L93.1287832,87.1851563 L93.1287832,87.1851563 Z M12,48.3378128 L22.3560208,21 L53,76 L12,48.3378128 L12,48.3378128 Z M20,66 L63.9688838,95.0538506 L90,122 L49.9996693,108.453966 L20,66 L20,66 Z M49.5797719,118 L92,132.031399 L32,136 L49.5797719,118 L49.5797719,118 Z M31,145.307001 L95,141 L78.0160312,181 L31,145.307001 L31,145.307001 Z M150.580187,181 L133,141 L198,145.304664 L150.580187,181 L150.580187,181 Z" fill="#000000" sketch:type="MSShapeGroup"/></g></svg>